<svg width="64" height="64" viewBox="0 0 64 64" fill="none" xmlns="http://www.w3.org/2000/svg">
<rect width="64" height="64" rx="12" fill="white"/>
<rect width="24" height="24" transform="translate(20 20)" fill="white"/>
<path d="M35 33.575C35.9946 33.575 36.9484 33.1799 37.6516 32.4767C38.3549 31.7734 38.75 30.8196 38.75 29.825C38.75 28.8304 38.3549 27.8766 37.6516 27.1733C36.9484 26.4701 35.9946 26.075 35 26.075C34.0054 26.075 33.0516 26.4701 32.3483 27.1733C31.6451 27.8766 31.25 28.8304 31.25 29.825C31.25 30.8196 31.6451 31.7734 32.3483 32.4767C33.0516 33.1799 34.0054 33.575 35 33.575Z" fill="#6FAB23"/>
<path d="M23 21.5C22.2044 21.5 21.4413 21.8161 20.8787 22.3787C20.3161 22.9413 20 23.7044 20 24.5V38C20 38.7956 20.3161 39.5587 20.8787 40.1213C21.4413 40.6839 22.2044 41 23 41H41C41.7956 41 42.5587 40.6839 43.1213 40.1213C43.6839 39.5587 44 38.7956 44 38V24.5C44 23.7044 43.6839 22.9413 43.1213 22.3787C42.5587 21.8161 41.7956 21.5 41 21.5H23ZM21.5 24.5C21.5 24.1022 21.658 23.7206 21.9393 23.4393C22.2206 23.158 22.6022 23 23 23H26V26H21.5V24.5ZM27.5 39.5V23H41C41.3978 23 41.7794 23.158 42.0607 23.4393C42.342 23.7206 42.5 24.1022 42.5 24.5V38C42.5 38.4275 42.32 38.8145 42.035 39.0875C41.225 37.241 39.233 35 35 35C30.4445 35 28.4825 37.595 27.803 39.5H27.5ZM21.5 36.5H26V39.5H23C22.6022 39.5 22.2206 39.342 21.9393 39.0607C21.658 38.7794 21.5 38.3978 21.5 38V36.5ZM26 35H21.5V32H26V35ZM26 30.5H21.5V27.5H26V30.5Z" fill="#6FAB23"/>
</svg>
