<svg width="64" height="64" viewBox="0 0 64 64" fill="none" xmlns="http://www.w3.org/2000/svg">
<rect width="64" height="64" rx="12" fill="white"/>
<g clip-path="url(#clip0_2_28791)">
<path fill-rule="evenodd" clip-rule="evenodd" d="M42.5 23C42.5 22.6022 42.342 22.2206 42.0607 21.9393C41.7794 21.658 41.3978 21.5 41 21.5H23C22.6022 21.5 22.2206 21.658 21.9393 21.9393C21.658 22.2206 21.5 22.6022 21.5 23V41C21.5 41.3978 21.658 41.7794 21.9393 42.0607C22.2206 42.342 22.6022 42.5 23 42.5H41C41.3978 42.5 41.7794 42.342 42.0607 42.0607C42.342 41.7794 42.5 41.3978 42.5 41V23ZM20 23C20 22.2044 20.3161 21.4413 20.8787 20.8787C21.4413 20.3161 22.2044 20 23 20H41C41.7956 20 42.5587 20.3161 43.1213 20.8787C43.6839 21.4413 44 22.2044 44 23V41C44 41.7956 43.6839 42.5587 43.1213 43.1213C42.5587 43.6839 41.7956 44 41 44H23C22.2044 44 21.4413 43.6839 20.8787 43.1213C20.3161 42.5587 20 41.7956 20 41V23ZM32.75 37.25C32.75 37.4489 32.671 37.6397 32.5303 37.7803C32.3897 37.921 32.1989 38 32 38C31.8011 38 31.6103 37.921 31.4697 37.7803C31.329 37.6397 31.25 37.4489 31.25 37.25V28.5605L28.031 31.781C27.8902 31.9218 27.6992 32.0009 27.5 32.0009C27.3008 32.0009 27.1098 31.9218 26.969 31.781C26.8282 31.6402 26.7491 31.4492 26.7491 31.25C26.7491 31.0508 26.8282 30.8598 26.969 30.719L31.469 26.219C31.5387 26.1492 31.6214 26.0937 31.7125 26.0559C31.8037 26.0181 31.9013 25.9987 32 25.9987C32.0987 25.9987 32.1963 26.0181 32.2874 26.0559C32.3786 26.0937 32.4613 26.1492 32.531 26.219L37.031 30.719C37.1718 30.8598 37.2509 31.0508 37.2509 31.25C37.2509 31.4492 37.1718 31.6402 37.031 31.781C36.8902 31.9218 36.6992 32.0009 36.5 32.0009C36.3008 32.0009 36.1098 31.9218 35.969 31.781L32.75 28.5605V37.25Z" fill="#6D80E5"/>
</g>
<defs>
<clipPath id="clip0_2_28791">
<rect width="24" height="24" fill="white" transform="translate(20 20)"/>
</clipPath>
</defs>
</svg>
