<svg width="64" height="64" viewBox="0 0 64 64" fill="none" xmlns="http://www.w3.org/2000/svg">
<rect width="64" height="64" rx="12" fill="white"/>
<path d="M41 24H23C22.447 24 22 24.447 22 25V39C22 39.553 22.447 40 23 40H41C41.553 40 42 39.553 42 39V25C42 24.447 41.553 24 41 24ZM40 35C38.343 35 37 36.343 37 38H27C27 36.343 25.657 35 24 35V29C25.657 29 27 27.657 27 26H37C37 27.657 38.343 29 40 29V35Z" fill="#E37882"/>
<path d="M32 28C29.794 28 28 29.794 28 32C28 34.206 29.794 36 32 36C34.206 36 36 34.206 36 32C36 29.794 34.206 28 32 28ZM32 34C30.897 34 30 33.103 30 32C30 30.897 30.897 30 32 30C33.103 30 34 30.897 34 32C34 33.103 33.103 34 32 34Z" fill="#E37882"/>
</svg>
