<svg width="64" height="64" viewBox="0 0 64 64" fill="none" xmlns="http://www.w3.org/2000/svg">
<rect width="64" height="64" rx="12" fill="white"/>
<g clip-path="url(#clip0_2_28747)">
<rect width="24" height="24" transform="translate(20 20)" fill="white"/>
<path d="M20 32C20 28.8174 21.2643 25.7652 23.5147 23.5147C25.7652 21.2643 28.8174 20 32 20C35.1826 20 38.2348 21.2643 40.4853 23.5147C42.7357 25.7652 44 28.8174 44 32C44 35.1826 42.7357 38.2348 40.4853 40.4853C38.2348 42.7357 35.1826 44 32 44C28.8174 44 25.7652 42.7357 23.5147 40.4853C21.2643 38.2348 20 35.1826 20 32ZM31.25 21.6155C30.245 21.9215 29.2475 22.8455 28.4195 24.398C28.1467 24.9141 27.9121 25.4496 27.7175 26H31.25V21.6155ZM26.135 26C26.385 25.2032 26.7063 24.4306 27.095 23.6915C27.3544 23.2011 27.6539 22.733 27.9905 22.292C26.132 23.0627 24.533 24.3494 23.3825 26H26.135ZM25.262 31.25C25.307 29.9345 25.469 28.673 25.73 27.5H22.511C21.9517 28.6776 21.6179 29.9495 21.527 31.25H25.262ZM27.2705 27.5C26.9755 28.7297 26.8056 29.9861 26.7635 31.25H31.25V27.5H27.2705ZM32.75 27.5V31.25H37.235C37.1934 29.9861 37.0241 28.7297 36.7295 27.5H32.75ZM26.765 32.75C26.8066 34.0138 26.976 35.2702 27.2705 36.5H31.25V32.75H26.765ZM32.75 32.75V36.5H36.7295C37.01 35.3525 37.1885 34.088 37.2365 32.75H32.75ZM27.7175 38C27.9245 38.579 28.16 39.116 28.4195 39.602C29.2475 41.1545 30.2465 42.077 31.25 42.3845V38H27.7175ZM27.9905 41.708C27.6539 41.267 27.3543 40.7989 27.095 40.3085C26.7063 39.5694 26.385 38.7968 26.135 38H23.3825C24.5329 39.6506 26.132 40.9373 27.9905 41.708ZM25.73 36.5C25.4587 35.2671 25.3021 34.0118 25.262 32.75H21.527C21.62 34.085 21.9635 35.3495 22.511 36.5H25.73ZM36.0095 41.708C37.868 40.9373 39.4671 39.6506 40.6175 38H37.865C37.615 38.7968 37.2937 39.5694 36.905 40.3085C36.6457 40.799 36.3462 41.2671 36.0095 41.708ZM32.75 38V42.3845C33.755 42.0785 34.7525 41.1545 35.5805 39.602C35.84 39.116 36.0755 38.579 36.2825 38H32.75ZM38.27 36.5H41.489C42.0365 35.3495 42.38 34.085 42.473 32.75H38.738C38.6979 34.0118 38.5413 35.2671 38.27 36.5ZM42.473 31.25C42.382 29.9495 42.0483 28.6776 41.489 27.5H38.27C38.531 28.673 38.693 29.9345 38.738 31.25H42.473ZM36.905 23.6915C37.2755 24.3875 37.598 25.1615 37.865 26H40.6175C39.4671 24.3494 37.868 23.0627 36.0095 22.292C36.3365 22.718 36.6365 23.189 36.905 23.6915ZM36.2825 26C36.0879 25.4496 35.8533 24.9141 35.5805 24.398C34.7525 22.8455 33.755 21.923 32.75 21.6155V26H36.2825Z" fill="#FDBD00"/>
</g>
<defs>
<clipPath id="clip0_2_28747">
<rect width="24" height="24" fill="white" transform="translate(20 20)"/>
</clipPath>
</defs>
</svg>
