<svg width="64" height="64" viewBox="0 0 64 64" fill="none" xmlns="http://www.w3.org/2000/svg">
<rect width="64" height="64" rx="12" fill="white"/>
<path d="M32 39.2C29.5 39.2 27.29 37.92 26 36C26.03 34 30 32.9 32 32.9C34 32.9 37.97 34 38 36C36.71 37.92 34.5 39.2 32 39.2ZM32 25C32.7956 25 33.5587 25.3161 34.1213 25.8787C34.6839 26.4413 35 27.2044 35 28C35 28.7956 34.6839 29.5587 34.1213 30.1213C33.5587 30.6839 32.7956 31 32 31C31.2044 31 30.4413 30.6839 29.8787 30.1213C29.3161 29.5587 29 28.7956 29 28C29 27.2044 29.3161 26.4413 29.8787 25.8787C30.4413 25.3161 31.2044 25 32 25ZM32 22C30.6868 22 29.3864 22.2587 28.1732 22.7612C26.9599 23.2638 25.8575 24.0003 24.9289 24.9289C23.0536 26.8043 22 29.3478 22 32C22 34.6522 23.0536 37.1957 24.9289 39.0711C25.8575 39.9997 26.9599 40.7362 28.1732 41.2388C29.3864 41.7413 30.6868 42 32 42C34.6522 42 37.1957 40.9464 39.0711 39.0711C40.9464 37.1957 42 34.6522 42 32C42 26.47 37.5 22 32 22Z" fill="#00C3D0"/>
</svg>
